<svg width="19" height="24" viewBox="0 0 19 24" fill="none" xmlns="http://www.w3.org/2000/svg">
<path d="M9.62406 7.2221C8.74806 7.2221 7.39206 6.2261 5.96406 6.2621C4.08006 6.2861 2.35206 7.3541 1.38006 9.0461C-0.575938 12.4421 0.876061 17.4581 2.78406 20.2181C3.72006 21.5621 4.82406 23.0741 6.28806 23.0261C7.69206 22.9661 8.22006 22.1141 9.92406 22.1141C11.6161 22.1141 12.0961 23.0261 13.5841 22.9901C15.0961 22.9661 16.0561 21.6221 16.9801 20.2661C18.0481 18.7061 18.4921 17.1941 18.5161 17.1101C18.4801 17.0981 15.5761 15.9821 15.5401 12.6221C15.5161 9.8141 17.8321 8.4701 17.9401 8.4101C16.6201 6.4781 14.5921 6.2621 13.8841 6.2141C12.0361 6.0701 10.4881 7.2221 9.62406 7.2221ZM12.7441 4.3901C13.5241 3.4541 14.0401 2.1461 13.8961 0.850098C12.7801 0.898098 11.4361 1.5941 10.6321 2.5301C9.91206 3.3581 9.28806 4.6901 9.45606 5.9621C10.6921 6.0581 11.9641 5.3261 12.7441 4.3901Z" fill="black"/>
</svg>
