<svg width="22" height="20" viewBox="0 0 22 20" fill="none" xmlns="http://www.w3.org/2000/svg">
<path d="M1.25008 0.25H20.7501C21.0374 0.25 21.313 0.364137 21.5161 0.567301C21.7193 0.770465 21.8334 1.04602 21.8334 1.33333V18.6667C21.8334 18.954 21.7193 19.2295 21.5161 19.4327C21.313 19.6359 21.0374 19.75 20.7501 19.75H1.25008C0.962764 19.75 0.687213 19.6359 0.484049 19.4327C0.280885 19.2295 0.166748 18.954 0.166748 18.6667V1.33333C0.166748 1.04602 0.280885 0.770465 0.484049 0.567301C0.687213 0.364137 0.962764 0.25 1.25008 0.25ZM11.0651 9.65658L4.11875 3.75783L2.71583 5.40883L11.0792 12.5101L19.2919 5.40342L17.8749 3.76433L11.0662 9.65658H11.0651Z" fill="black"/>
</svg>
